<mxfile host="app.diagrams.net" modified="2024-03-12T16:53:58.338Z" agent="Mozilla/5.0 (Macintosh; Intel Mac OS X 10_15_7) AppleWebKit/537.36 (KHTML, like Gecko) Chrome/122.0.0.0 Safari/537.36" etag="5qg4MwfUIM7qAEw6UXGG" version="23.1.6" type="device">
  <diagram name="Page-1" id="MVqmxZNwrUU7EiHerFzQ">
    <mxGraphModel dx="1477" dy="1232" grid="1" gridSize="10" guides="1" tooltips="1" connect="1" arrows="1" fold="1" page="1" pageScale="1" pageWidth="827" pageHeight="1169" math="0" shadow="0">
      <root>
        <mxCell id="0" />
        <mxCell id="1" parent="0" />
        <mxCell id="ZfPmeMsIvYA4c6E1bq3Q-5" value="Retrieve data" style="edgeStyle=orthogonalEdgeStyle;rounded=0;orthogonalLoop=1;jettySize=auto;html=1;entryX=0.5;entryY=0;entryDx=0;entryDy=0;entryPerimeter=0;" edge="1" parent="1" target="ZfPmeMsIvYA4c6E1bq3Q-4">
          <mxGeometry x="0.337" relative="1" as="geometry">
            <mxPoint x="400" y="210" as="targetPoint" />
            <mxPoint x="400" y="150" as="sourcePoint" />
            <mxPoint as="offset" />
          </mxGeometry>
        </mxCell>
        <mxCell id="ZfPmeMsIvYA4c6E1bq3Q-9" style="edgeStyle=orthogonalEdgeStyle;rounded=0;orthogonalLoop=1;jettySize=auto;html=1;exitX=0;exitY=0;exitDx=55;exitDy=60;exitPerimeter=0;entryX=0.5;entryY=0;entryDx=0;entryDy=0;" edge="1" parent="1" source="ZfPmeMsIvYA4c6E1bq3Q-1" target="ZfPmeMsIvYA4c6E1bq3Q-8">
          <mxGeometry relative="1" as="geometry" />
        </mxCell>
        <mxCell id="ZfPmeMsIvYA4c6E1bq3Q-1" value="使用者提问" style="shape=callout;whiteSpace=wrap;html=1;perimeter=calloutPerimeter;" vertex="1" parent="1">
          <mxGeometry x="345" y="40" width="110" height="60" as="geometry" />
        </mxCell>
        <mxCell id="ZfPmeMsIvYA4c6E1bq3Q-7" style="edgeStyle=orthogonalEdgeStyle;rounded=0;orthogonalLoop=1;jettySize=auto;html=1;exitX=1;exitY=0.5;exitDx=0;exitDy=0;entryX=0;entryY=0.5;entryDx=0;entryDy=0;" edge="1" parent="1" source="ZfPmeMsIvYA4c6E1bq3Q-3" target="ZfPmeMsIvYA4c6E1bq3Q-8">
          <mxGeometry relative="1" as="geometry">
            <mxPoint x="310" y="190" as="targetPoint" />
          </mxGeometry>
        </mxCell>
        <mxCell id="ZfPmeMsIvYA4c6E1bq3Q-13" style="edgeStyle=orthogonalEdgeStyle;rounded=0;orthogonalLoop=1;jettySize=auto;html=1;exitX=1;exitY=1;exitDx=0;exitDy=0;entryX=0;entryY=0.5;entryDx=0;entryDy=0;" edge="1" parent="1" source="ZfPmeMsIvYA4c6E1bq3Q-3" target="ZfPmeMsIvYA4c6E1bq3Q-14">
          <mxGeometry relative="1" as="geometry">
            <mxPoint x="320" y="360" as="targetPoint" />
          </mxGeometry>
        </mxCell>
        <mxCell id="ZfPmeMsIvYA4c6E1bq3Q-3" value="&lt;font style=&quot;font-size: 16px;&quot;&gt;LLM&lt;/font&gt;" style="ellipse;whiteSpace=wrap;html=1;aspect=fixed;" vertex="1" parent="1">
          <mxGeometry x="190" y="220" width="80" height="80" as="geometry" />
        </mxCell>
        <mxCell id="ZfPmeMsIvYA4c6E1bq3Q-4" value="Vectot DB" style="shape=cylinder3;whiteSpace=wrap;html=1;boundedLbl=1;backgroundOutline=1;size=15;" vertex="1" parent="1">
          <mxGeometry x="355" y="240" width="90" height="80" as="geometry" />
        </mxCell>
        <mxCell id="ZfPmeMsIvYA4c6E1bq3Q-8" value="Query Parser" style="rounded=1;whiteSpace=wrap;html=1;" vertex="1" parent="1">
          <mxGeometry x="350" y="130" width="100" height="50" as="geometry" />
        </mxCell>
        <mxCell id="ZfPmeMsIvYA4c6E1bq3Q-10" value="回答" style="shape=callout;whiteSpace=wrap;html=1;perimeter=calloutPerimeter;" vertex="1" parent="1">
          <mxGeometry x="352.5" y="470" width="100" height="60" as="geometry" />
        </mxCell>
        <mxCell id="ZfPmeMsIvYA4c6E1bq3Q-11" style="edgeStyle=orthogonalEdgeStyle;rounded=0;orthogonalLoop=1;jettySize=auto;html=1;exitX=0.5;exitY=1;exitDx=0;exitDy=0;exitPerimeter=0;" edge="1" parent="1" source="ZfPmeMsIvYA4c6E1bq3Q-4">
          <mxGeometry relative="1" as="geometry">
            <mxPoint x="400" y="370" as="targetPoint" />
          </mxGeometry>
        </mxCell>
        <mxCell id="ZfPmeMsIvYA4c6E1bq3Q-14" value="Outpur Parser" style="rounded=1;whiteSpace=wrap;html=1;" vertex="1" parent="1">
          <mxGeometry x="350" y="370" width="105" height="50" as="geometry" />
        </mxCell>
        <mxCell id="ZfPmeMsIvYA4c6E1bq3Q-16" style="edgeStyle=orthogonalEdgeStyle;rounded=0;orthogonalLoop=1;jettySize=auto;html=1;exitX=0.5;exitY=1;exitDx=0;exitDy=0;entryX=0.5;entryY=0;entryDx=0;entryDy=0;entryPerimeter=0;" edge="1" parent="1" source="ZfPmeMsIvYA4c6E1bq3Q-14" target="ZfPmeMsIvYA4c6E1bq3Q-10">
          <mxGeometry relative="1" as="geometry" />
        </mxCell>
      </root>
    </mxGraphModel>
  </diagram>
</mxfile>
